<svg width="40" height="40" viewBox="0 0 40 40" fill="none" xmlns="http://www.w3.org/2000/svg">
<path d="M20.0016 18.5016C19.1732 18.5016 18.5016 19.1732 18.5016 20.0016C18.5016 20.8299 19.1732 21.5016 20.0016 21.5016C20.8299 21.5016 21.5016 20.8299 21.5016 20.0016C21.5016 19.1732 20.8299 18.5016 20.0016 18.5016ZM14.0016 18.5016C13.1732 18.5016 12.5016 19.1732 12.5016 20.0016C12.5016 20.8299 13.1732 21.5016 14.0016 21.5016C14.8299 21.5016 15.5016 20.8299 15.5016 20.0016C15.5016 19.1732 14.8299 18.5016 14.0016 18.5016ZM26.0016 18.5016C25.1732 18.5016 24.5016 19.1732 24.5016 20.0016C24.5016 20.8299 25.1732 21.5016 26.0016 21.5016C26.8299 21.5016 27.5016 20.8299 27.5016 20.0016C27.5016 19.1732 26.8299 18.5016 26.0016 18.5016ZM34.8321 6.58214C27.4211 -1.6089 14.7732 -2.24135 6.58214 5.16954C-1.6089 12.5805 -2.24135 25.2285 5.16954 33.4195L0.294538 38.2945C0.107038 38.482 0.00169106 38.7363 0.00169106 39.0014C0.00156886 39.5537 0.449323 40.0014 1.00157 40.0016H20.0016C24.9604 40.0014 29.7424 38.159 33.4195 34.8321C41.6107 27.4211 42.243 14.7732 34.8321 6.58214ZM20.0016 38.0016H3.41551L7.27305 34.1441C7.27305 34.1443 7.27318 34.144 7.27305 34.1441C7.66343 33.7536 7.66356 33.1203 7.27305 32.7301C3.8983 29.3553 2.00206 24.7783 2.00157 20.0056C2.00047 10.0655 10.0575 2.0067 19.9975 2.0056C29.9375 2.0045 37.9964 10.0615 37.9975 20.0016C37.9986 29.9415 29.9416 38.0005 20.0016 38.0016Z" fill="white"/>
</svg>
