<svg width="24" height="24" viewBox="0 0 24 24" fill="none" xmlns="http://www.w3.org/2000/svg">
<path fill-rule="evenodd" clip-rule="evenodd" d="M12 0C5.37347 0 0 5.50824 0 12.3038C0 17.7398 3.43836 22.3517 8.20635 23.9787C8.80602 24.0926 9.02621 23.7117 9.02621 23.3867C9.02621 23.0936 9.01506 22.1242 9.00993 21.0961C5.67156 21.8404 4.96712 19.6444 4.96712 19.6444C4.42123 18.2224 3.63472 17.8441 3.63472 17.8441C2.54594 17.0804 3.71679 17.0962 3.71679 17.0962C4.92177 17.1829 5.55626 18.3642 5.55626 18.3642C6.62656 20.245 8.36351 19.7012 9.04829 19.3868C9.15622 18.5918 9.46699 18.0488 9.8102 17.7416C7.14478 17.4307 4.34294 16.3755 4.34294 11.661C4.34294 10.3179 4.8117 9.22031 5.57935 8.35867C5.45475 8.04853 5.044 6.79715 5.69578 5.10246C5.69578 5.10246 6.7035 4.77193 8.99642 6.36382C9.95366 6.09122 10.9802 5.95446 12 5.9496C13.0198 5.95422 14.0472 6.09116 15.0062 6.36382C17.2966 4.77193 18.3029 5.10246 18.3029 5.10246C18.9561 6.79715 18.5453 8.04853 18.4207 8.35867C19.1902 9.22031 19.6555 10.3179 19.6555 11.661C19.6555 16.3869 16.8482 17.4272 14.1761 17.7318C14.6066 18.1136 14.9901 18.8624 14.9901 20.0103C14.9901 21.6566 14.9764 22.9815 14.9764 23.3867C14.9764 23.7144 15.1922 24.098 15.8005 23.9772C20.566 22.3485 24 17.7381 24 12.3038C24 5.50818 18.6273 0 12 0Z" fill="white"/>
<path d="M4.5451 17.6654C4.51863 17.7267 4.42484 17.7451 4.33944 17.7029C4.25214 17.6628 4.20352 17.5794 4.23169 17.5181C4.2576 17.4553 4.35133 17.4378 4.43841 17.4798C4.52544 17.5199 4.57507 17.6041 4.5451 17.6654ZM5.03122 18.2213C4.97399 18.2757 4.86189 18.2504 4.78619 18.1645C4.7075 18.0787 4.69296 17.9638 4.75104 17.9088C4.81007 17.8544 4.91856 17.8799 4.99702 17.9656C5.07572 18.0524 5.09104 18.1663 5.03122 18.2213ZM5.50432 18.9299C5.43081 18.9824 5.31038 18.9333 5.23603 18.8239C5.16252 18.7143 5.16252 18.5831 5.23772 18.5305C5.31207 18.478 5.4307 18.5253 5.50601 18.6338C5.57935 18.745 5.57935 18.8763 5.50432 18.9299ZM6.15244 19.6145C6.0867 19.6889 5.94661 19.6689 5.84404 19.5675C5.73915 19.4682 5.70998 19.3274 5.77571 19.253C5.84246 19.1785 5.98334 19.1995 6.08665 19.3001C6.19085 19.3992 6.2224 19.541 6.15244 19.6145ZM7.04671 20.012C7.01742 20.1085 6.8828 20.152 6.74682 20.1111C6.61107 20.0689 6.52229 19.9563 6.54967 19.8588C6.57794 19.7616 6.71347 19.7162 6.85035 19.76C6.98588 19.802 7.07493 19.914 7.04671 20.012ZM8.0288 20.0857C8.03218 20.1872 7.91693 20.2713 7.77425 20.2731C7.63078 20.2766 7.51458 20.1943 7.51294 20.0944C7.51294 19.992 7.62583 19.9089 7.76907 19.9061C7.91175 19.9033 8.0288 19.985 8.0288 20.0857ZM8.94262 19.9263C8.95969 20.0251 8.86055 20.1268 8.71888 20.1538C8.57958 20.1801 8.45059 20.1188 8.4329 20.0208C8.41561 19.9194 8.51638 19.8177 8.65568 19.7914C8.79757 19.7662 8.92454 19.8257 8.94262 19.9263Z" fill="white"/>
</svg>
