<svg width="180" height="18" viewBox="0 0 180 18" fill="none" xmlns="http://www.w3.org/2000/svg">
<path d="M0.392 18V4.056C0.392 3.448 0.544 2.896 0.848 2.4C1.152 1.888 1.552 1.48 2.048 1.176C2.56 0.871999 3.12 0.719999 3.728 0.719999H14.312C14.92 0.719999 15.48 0.871999 15.992 1.176C16.504 1.48 16.912 1.888 17.216 2.4C17.52 2.896 17.672 3.448 17.672 4.056V18H14.48V12.192H3.56V18H0.392ZM3.56 9.024H14.48V4.2C14.48 4.12 14.448 4.056 14.384 4.008C14.32 3.944 14.248 3.912 14.168 3.912H3.848C3.768 3.912 3.696 3.944 3.632 4.008C3.584 4.056 3.56 4.12 3.56 4.2V9.024ZM23.6945 18C23.0865 18 22.5265 17.848 22.0145 17.544C21.5185 17.24 21.1185 16.84 20.8145 16.344C20.5105 15.832 20.3585 15.272 20.3585 14.664V0.719999H23.5265V14.52C23.5265 14.6 23.5505 14.672 23.5985 14.736C23.6625 14.784 23.7345 14.808 23.8145 14.808H34.1345C34.2145 14.808 34.2865 14.784 34.3505 14.736C34.4145 14.672 34.4465 14.6 34.4465 14.52V0.719999H37.6385V14.664C37.6385 15.272 37.4865 15.832 37.1825 16.344C36.8785 16.84 36.4705 17.24 35.9585 17.544C35.4625 17.848 34.9105 18 34.3025 18H23.6945ZM46.4735 18V3.912H39.4175V0.719999H56.6975V3.912H49.6655V18H46.4735ZM61.7804 18C61.1724 18 60.6124 17.848 60.1004 17.544C59.6044 17.24 59.2044 16.84 58.9004 16.344C58.5964 15.832 58.4444 15.272 58.4444 14.664V4.056C58.4444 3.448 58.5964 2.896 58.9004 2.4C59.2044 1.888 59.6044 1.48 60.1004 1.176C60.6124 0.871999 61.1724 0.719999 61.7804 0.719999H72.3884C72.9964 0.719999 73.5484 0.871999 74.0444 1.176C74.5564 1.48 74.9644 1.888 75.2684 2.4C75.5724 2.896 75.7244 3.448 75.7244 4.056V14.664C75.7244 15.272 75.5724 15.832 75.2684 16.344C74.9644 16.84 74.5564 17.24 74.0444 17.544C73.5484 17.848 72.9964 18 72.3884 18H61.7804ZM61.9004 14.808H72.2204C72.3004 14.808 72.3724 14.784 72.4364 14.736C72.5004 14.672 72.5324 14.6 72.5324 14.52V4.2C72.5324 4.12 72.5004 4.056 72.4364 4.008C72.3724 3.944 72.3004 3.912 72.2204 3.912H61.9004C61.8204 3.912 61.7484 3.944 61.6844 4.008C61.6364 4.056 61.6124 4.12 61.6124 4.2V14.52C61.6124 14.6 61.6364 14.672 61.6844 14.736C61.7484 14.784 61.8204 14.808 61.9004 14.808ZM92.1434 18L86.9354 11.784H91.0874L95.5994 17.112V18H92.1434ZM78.3674 18V0.743999H92.2874C92.8954 0.743999 93.4554 0.895999 93.9674 1.2C94.4794 1.504 94.8874 1.912 95.1914 2.424C95.4954 2.92 95.6474 3.472 95.6474 4.08V8.736C95.6474 9.344 95.4954 9.904 95.1914 10.416C94.8874 10.928 94.4794 11.336 93.9674 11.64C93.4554 11.928 92.8954 12.072 92.2874 12.072L81.5354 12.096V18H78.3674ZM81.8234 8.88H92.1434C92.2234 8.88 92.2954 8.856 92.3594 8.808C92.4234 8.76 92.4554 8.696 92.4554 8.616V4.2C92.4554 4.12 92.4234 4.056 92.3594 4.008C92.2954 3.944 92.2234 3.912 92.1434 3.912H81.8234C81.7434 3.912 81.6714 3.944 81.6074 4.008C81.5594 4.056 81.5354 4.12 81.5354 4.2V8.616C81.5354 8.696 81.5594 8.76 81.6074 8.808C81.6714 8.856 81.7434 8.88 81.8234 8.88ZM97.8361 18V0.719999H100.98V18H97.8361ZM103.353 18V0.719999H117.273C117.881 0.719999 118.441 0.871999 118.953 1.176C119.465 1.48 119.873 1.888 120.177 2.4C120.481 2.896 120.633 3.448 120.633 4.056V14.664C120.633 15.272 120.481 15.832 120.177 16.344C119.873 16.84 119.465 17.24 118.953 17.544C118.441 17.848 117.881 18 117.273 18H103.353ZM106.785 14.808H117.129C117.209 14.808 117.281 14.784 117.345 14.736C117.409 14.672 117.441 14.6 117.441 14.52V4.2C117.441 4.12 117.409 4.056 117.345 4.008C117.281 3.944 117.209 3.912 117.129 3.912H106.785C106.705 3.912 106.633 3.944 106.569 4.008C106.521 4.056 106.497 4.12 106.497 4.2V14.52C106.497 14.6 106.521 14.672 106.569 14.736C106.633 14.784 106.705 14.808 106.785 14.808ZM123.369 18V4.056C123.369 3.448 123.521 2.896 123.825 2.4C124.129 1.888 124.529 1.48 125.025 1.176C125.537 0.871999 126.097 0.719999 126.705 0.719999H137.289C137.897 0.719999 138.457 0.871999 138.969 1.176C139.481 1.48 139.889 1.888 140.193 2.4C140.497 2.896 140.649 3.448 140.649 4.056V18H137.457V12.192H126.537V18H123.369ZM126.537 9.024H137.457V4.2C137.457 4.12 137.425 4.056 137.361 4.008C137.297 3.944 137.225 3.912 137.145 3.912H126.825C126.745 3.912 126.673 3.944 126.609 4.008C126.561 4.056 126.537 4.12 126.537 4.2V9.024ZM143.431 18V0.719999H157.351C157.959 0.719999 158.519 0.871999 159.031 1.176C159.543 1.48 159.951 1.888 160.255 2.4C160.559 2.896 160.711 3.448 160.711 4.056V14.664C160.711 15.272 160.559 15.832 160.255 16.344C159.951 16.84 159.543 17.24 159.031 17.544C158.519 17.848 157.959 18 157.351 18H143.431ZM146.863 14.808H157.207C157.287 14.808 157.359 14.784 157.423 14.736C157.487 14.672 157.519 14.6 157.519 14.52V4.2C157.519 4.12 157.487 4.056 157.423 4.008C157.359 3.944 157.287 3.912 157.207 3.912H146.863C146.783 3.912 146.711 3.944 146.647 4.008C146.599 4.056 146.575 4.12 146.575 4.2V14.52C146.575 14.6 146.599 14.672 146.647 14.736C146.711 14.784 146.783 14.808 146.863 14.808ZM163.447 18V0.719999H179.359V3.912H166.639V7.752H176.863V10.968H166.639V14.808H179.359V18H163.447Z" fill="#0090A5"/>
</svg>
