<svg width="214" height="48" viewBox="0 0 214 48" fill="none" xmlns="http://www.w3.org/2000/svg">
<path d="M0.392 18V0.719999H16.304V3.912H3.584V7.752H13.808V10.968H3.584V14.808H16.304V18H0.392ZM18.719 18V0.719999H22.199L32.807 13.344V0.719999H35.999V18H32.519L21.887 5.352V18H18.719ZM42.0238 18C41.4158 18 40.8558 17.848 40.3438 17.544C39.8478 17.24 39.4478 16.84 39.1438 16.344C38.8398 15.832 38.6878 15.272 38.6878 14.664V4.056C38.6878 3.448 38.8398 2.896 39.1438 2.4C39.4478 1.888 39.8478 1.48 40.3438 1.176C40.8558 0.871999 41.4158 0.719999 42.0238 0.719999H52.6078C53.2158 0.719999 53.7758 0.871999 54.2878 1.176C54.7998 1.48 55.2078 1.888 55.5118 2.4C55.8158 2.896 55.9678 3.448 55.9678 4.056V5.4H52.7758V4.2C52.7758 4.12 52.7438 4.056 52.6798 4.008C52.6158 3.944 52.5438 3.912 52.4638 3.912H42.1438C42.0638 3.912 41.9918 3.944 41.9278 4.008C41.8798 4.056 41.8558 4.12 41.8558 4.2V14.52C41.8558 14.6 41.8798 14.672 41.9278 14.736C41.9918 14.784 42.0638 14.808 42.1438 14.808H52.4638C52.5438 14.808 52.6158 14.784 52.6798 14.736C52.7438 14.672 52.7758 14.6 52.7758 14.52V11.4H48.8638V8.208H55.9678V14.664C55.9678 15.272 55.8158 15.832 55.5118 16.344C55.2078 16.84 54.7998 17.24 54.2878 17.544C53.7758 17.848 53.2158 18 52.6078 18H42.0238ZM58.6576 18V4.056C58.6576 3.448 58.8096 2.896 59.1136 2.4C59.4176 1.888 59.8176 1.48 60.3136 1.176C60.8256 0.871999 61.3856 0.719999 61.9936 0.719999H72.5776C73.1856 0.719999 73.7456 0.871999 74.2576 1.176C74.7696 1.48 75.1776 1.888 75.4816 2.4C75.7856 2.896 75.9376 3.448 75.9376 4.056V18H72.7456V12.192H61.8256V18H58.6576ZM61.8256 9.024H72.7456V4.2C72.7456 4.12 72.7136 4.056 72.6496 4.008C72.5856 3.944 72.5136 3.912 72.4336 3.912H62.1136C62.0336 3.912 61.9616 3.944 61.8976 4.008C61.8496 4.056 61.8256 4.12 61.8256 4.2V9.024ZM80.7601 18C80.1521 18 79.5921 17.848 79.0801 17.544C78.5841 17.24 78.1841 16.84 77.8801 16.344C77.5761 15.832 77.4241 15.272 77.4241 14.664V12.696H80.5921V14.52C80.5921 14.6 80.6161 14.672 80.6641 14.736C80.7281 14.784 80.8001 14.808 80.8801 14.808H91.2001C91.2801 14.808 91.3521 14.784 91.4161 14.736C91.4801 14.672 91.5121 14.6 91.5121 14.52V0.719999H94.7041V14.664C94.7041 15.272 94.5521 15.832 94.2481 16.344C93.9441 16.84 93.5361 17.24 93.0241 17.544C92.5281 17.848 91.9761 18 91.3681 18H80.7601ZM97.4467 18V4.056C97.4467 3.448 97.5987 2.896 97.9027 2.4C98.2067 1.888 98.6067 1.48 99.1027 1.176C99.6147 0.871999 100.175 0.719999 100.783 0.719999H111.367C111.975 0.719999 112.535 0.871999 113.047 1.176C113.559 1.48 113.967 1.888 114.271 2.4C114.575 2.896 114.727 3.448 114.727 4.056V18H111.535V12.192H100.615V18H97.4467ZM100.615 9.024H111.535V4.2C111.535 4.12 111.503 4.056 111.439 4.008C111.375 3.944 111.303 3.912 111.223 3.912H100.903C100.823 3.912 100.751 3.944 100.687 4.008C100.639 4.056 100.615 4.12 100.615 4.2V9.024ZM117.461 18V0.719999H120.941L127.205 8.184L133.445 0.719999H136.949V18H133.757V5.328L127.205 13.128L120.629 5.352V18H117.461ZM139.775 18V0.719999H155.687V3.912H142.967V7.752H153.191V10.968H142.967V14.808H155.687V18H139.775ZM158.102 18V0.719999H161.582L172.19 13.344V0.719999H175.382V18H171.902L161.27 5.352V18H158.102ZM184.263 18V3.912H177.207V0.719999H194.487V3.912H187.455V18H184.263ZM199.57 18C198.962 18 198.402 17.848 197.89 17.544C197.394 17.24 196.994 16.84 196.69 16.344C196.386 15.832 196.234 15.272 196.234 14.664V4.056C196.234 3.448 196.386 2.896 196.69 2.4C196.994 1.888 197.394 1.48 197.89 1.176C198.402 0.871999 198.962 0.719999 199.57 0.719999H210.178C210.786 0.719999 211.338 0.871999 211.834 1.176C212.346 1.48 212.754 1.888 213.058 2.4C213.362 2.896 213.514 3.448 213.514 4.056V14.664C213.514 15.272 213.362 15.832 213.058 16.344C212.754 16.84 212.346 17.24 211.834 17.544C211.338 17.848 210.786 18 210.178 18H199.57ZM199.69 14.808H210.01C210.09 14.808 210.162 14.784 210.226 14.736C210.29 14.672 210.322 14.6 210.322 14.52V4.2C210.322 4.12 210.29 4.056 210.226 4.008C210.162 3.944 210.09 3.912 210.01 3.912H199.69C199.61 3.912 199.538 3.944 199.474 4.008C199.426 4.056 199.402 4.12 199.402 4.2V14.52C199.402 14.6 199.426 14.672 199.474 14.736C199.538 14.784 199.61 14.808 199.69 14.808ZM0.392 48V30.72H14.312C14.92 30.72 15.48 30.872 15.992 31.176C16.504 31.48 16.912 31.888 17.216 32.4C17.52 32.896 17.672 33.448 17.672 34.056V44.664C17.672 45.272 17.52 45.832 17.216 46.344C16.912 46.84 16.504 47.24 15.992 47.544C15.48 47.848 14.92 48 14.312 48H0.392ZM3.824 44.808H14.168C14.248 44.808 14.32 44.784 14.384 44.736C14.448 44.672 14.48 44.6 14.48 44.52V34.2C14.48 34.12 14.448 34.056 14.384 34.008C14.32 33.944 14.248 33.912 14.168 33.912H3.824C3.744 33.912 3.672 33.944 3.608 34.008C3.56 34.056 3.536 34.12 3.536 34.2V44.52C3.536 44.6 3.56 44.672 3.608 44.736C3.672 44.784 3.744 44.808 3.824 44.808ZM23.6476 48C23.0396 48 22.4796 47.848 21.9676 47.544C21.4716 47.24 21.0716 46.84 20.7676 46.344C20.4636 45.832 20.3116 45.272 20.3116 44.664V34.056C20.3116 33.448 20.4636 32.896 20.7676 32.4C21.0716 31.888 21.4716 31.48 21.9676 31.176C22.4796 30.872 23.0396 30.72 23.6476 30.72H34.2556C34.8636 30.72 35.4156 30.872 35.9116 31.176C36.4236 31.48 36.8316 31.888 37.1356 32.4C37.4396 32.896 37.5916 33.448 37.5916 34.056V44.664C37.5916 45.272 37.4396 45.832 37.1356 46.344C36.8316 46.84 36.4236 47.24 35.9116 47.544C35.4156 47.848 34.8636 48 34.2556 48H23.6476ZM23.7676 44.808H34.0876C34.1676 44.808 34.2396 44.784 34.3036 44.736C34.3676 44.672 34.3996 44.6 34.3996 44.52V34.2C34.3996 34.12 34.3676 34.056 34.3036 34.008C34.2396 33.944 34.1676 33.912 34.0876 33.912H23.7676C23.6876 33.912 23.6156 33.944 23.5516 34.008C23.5036 34.056 23.4796 34.12 23.4796 34.2V44.52C23.4796 44.6 23.5036 44.672 23.5516 44.736C23.6156 44.784 23.6876 44.808 23.7676 44.808ZM47.5706 48V30.744H61.4906C62.0986 30.744 62.6586 30.896 63.1706 31.2C63.6826 31.504 64.0906 31.912 64.3946 32.424C64.6986 32.92 64.8506 33.472 64.8506 34.08V38.736C64.8506 39.344 64.6986 39.904 64.3946 40.416C64.0906 40.928 63.6826 41.336 63.1706 41.64C62.6586 41.928 62.0986 42.072 61.4906 42.072L50.7386 42.096V48H47.5706ZM51.0266 38.88H61.3466C61.4266 38.88 61.4986 38.856 61.5626 38.808C61.6266 38.76 61.6586 38.696 61.6586 38.616V34.2C61.6586 34.12 61.6266 34.056 61.5626 34.008C61.4986 33.944 61.4266 33.912 61.3466 33.912H51.0266C50.9466 33.912 50.8746 33.944 50.8106 34.008C50.7626 34.056 50.7386 34.12 50.7386 34.2V38.616C50.7386 38.696 50.7626 38.76 50.8106 38.808C50.8746 38.856 50.9466 38.88 51.0266 38.88ZM69.8429 48C69.2349 48 68.6749 47.848 68.1629 47.544C67.6669 47.24 67.2669 46.84 66.9629 46.344C66.6589 45.832 66.5069 45.272 66.5069 44.664V30.72H69.6749V44.52C69.6749 44.6 69.6989 44.672 69.7469 44.736C69.8109 44.784 69.8829 44.808 69.9629 44.808H80.2829C80.3629 44.808 80.4349 44.784 80.4989 44.736C80.5629 44.672 80.5949 44.6 80.5949 44.52V30.72H83.7869V44.664C83.7869 45.272 83.6349 45.832 83.3309 46.344C83.0269 46.84 82.6189 47.24 82.1069 47.544C81.6109 47.848 81.0589 48 80.4509 48H69.8429ZM73.3949 29.28L74.5229 24.888H77.6909L76.6109 29.28H73.3949ZM86.5019 48V30.72H99.7499C100.358 30.72 100.91 30.872 101.406 31.176C101.918 31.48 102.326 31.888 102.63 32.4C102.934 32.896 103.086 33.448 103.086 34.056V37.44C103.086 37.648 103.07 37.848 103.038 38.04C103.006 38.232 102.95 38.416 102.87 38.592C103.142 38.96 103.358 39.344 103.518 39.744C103.694 40.144 103.782 40.544 103.782 40.944V44.664C103.782 45.272 103.63 45.832 103.326 46.344C103.022 46.84 102.614 47.24 102.102 47.544C101.59 47.848 101.03 48 100.422 48H86.5019ZM89.9579 44.808H100.278C100.358 44.808 100.43 44.784 100.494 44.736C100.558 44.672 100.59 44.6 100.59 44.52V41.088C100.59 41.008 100.558 40.944 100.494 40.896C100.43 40.832 100.358 40.8 100.278 40.8H89.9579C89.8779 40.8 89.8059 40.832 89.7419 40.896C89.6939 40.944 89.6699 41.008 89.6699 41.088V44.52C89.6699 44.6 89.6939 44.672 89.7419 44.736C89.8059 44.784 89.8779 44.808 89.9579 44.808ZM89.9579 37.608H99.6059C99.6859 37.608 99.7499 37.584 99.7979 37.536C99.8459 37.472 99.8699 37.4 99.8699 37.32V34.2C99.8699 34.12 99.8459 34.056 99.7979 34.008C99.7499 33.944 99.6859 33.912 99.6059 33.912H89.9579C89.8779 33.912 89.8059 33.944 89.7419 34.008C89.6939 34.056 89.6699 34.12 89.6699 34.2V37.32C89.6699 37.4 89.6939 37.472 89.7419 37.536C89.8059 37.584 89.8779 37.608 89.9579 37.608ZM106.423 48V30.696H109.591V44.808H123.703V48H106.423ZM124.766 48V30.72H127.91V48H124.766ZM133.571 48C132.963 48 132.403 47.848 131.891 47.544C131.395 47.24 130.995 46.84 130.691 46.344C130.387 45.832 130.235 45.272 130.235 44.664V34.056C130.235 33.448 130.387 32.896 130.691 32.4C130.995 31.888 131.395 31.48 131.891 31.176C132.403 30.872 132.963 30.72 133.571 30.72H147.467V33.912H134.243C133.987 33.912 133.779 33.984 133.619 34.128C133.475 34.272 133.403 34.48 133.403 34.752V43.968C133.403 44.224 133.475 44.432 133.619 44.592C133.779 44.736 133.987 44.808 134.243 44.808H147.467V48H133.571ZM153.257 48C152.649 48 152.089 47.848 151.577 47.544C151.081 47.24 150.681 46.84 150.377 46.344C150.073 45.832 149.921 45.272 149.921 44.664V34.056C149.921 33.448 150.073 32.896 150.377 32.4C150.681 31.888 151.081 31.48 151.577 31.176C152.089 30.872 152.649 30.72 153.257 30.72H163.865C164.473 30.72 165.025 30.872 165.521 31.176C166.033 31.48 166.441 31.888 166.745 32.4C167.049 32.896 167.201 33.448 167.201 34.056V44.664C167.201 45.272 167.049 45.832 166.745 46.344C166.441 46.84 166.033 47.24 165.521 47.544C165.025 47.848 164.473 48 163.865 48H153.257ZM153.377 44.808H163.697C163.777 44.808 163.849 44.784 163.913 44.736C163.977 44.672 164.009 44.6 164.009 44.52V34.2C164.009 34.12 163.977 34.056 163.913 34.008C163.849 33.944 163.777 33.912 163.697 33.912H153.377C153.297 33.912 153.225 33.944 153.161 34.008C153.113 34.056 153.089 34.12 153.089 34.2V44.52C153.089 44.6 153.113 44.672 153.161 44.736C153.225 44.784 153.297 44.808 153.377 44.808Z" fill="#0090A5"/>
</svg>
