<svg width="141" height="54" viewBox="0 0 141 54" fill="none" xmlns="http://www.w3.org/2000/svg">
<path d="M3.68 24C3.072 24 2.512 23.848 2 23.544C1.504 23.24 1.104 22.84 0.8 22.344C0.496 21.832 0.344 21.272 0.344 20.664V10.056C0.344 9.448 0.496 8.896 0.8 8.4C1.104 7.888 1.504 7.48 2 7.176C2.512 6.872 3.072 6.72 3.68 6.72H14.264C14.872 6.72 15.432 6.872 15.944 7.176C16.456 7.48 16.864 7.888 17.168 8.4C17.472 8.896 17.624 9.448 17.624 10.056V11.4H14.432V10.2C14.432 10.12 14.4 10.056 14.336 10.008C14.272 9.944 14.2 9.912 14.12 9.912H3.8C3.72 9.912 3.648 9.944 3.584 10.008C3.536 10.056 3.512 10.12 3.512 10.2V20.52C3.512 20.6 3.536 20.672 3.584 20.736C3.648 20.784 3.72 20.808 3.8 20.808H14.12C14.2 20.808 14.272 20.784 14.336 20.736C14.4 20.672 14.432 20.6 14.432 20.52V17.4H10.52V14.208H17.624V20.664C17.624 21.272 17.472 21.832 17.168 22.344C16.864 22.84 16.456 23.24 15.944 23.544C15.432 23.848 14.872 24 14.264 24H3.68ZM20.3139 24V6.72H36.2259V9.912H23.5059V13.752H33.7299V16.968H23.5059V20.808H36.2259V24H20.3139ZM52.4169 24L47.2089 17.784H51.3609L55.8729 23.112V24H52.4169ZM38.6409 24V6.744H52.5609C53.1689 6.744 53.7289 6.896 54.2409 7.2C54.7529 7.504 55.1609 7.912 55.4649 8.424C55.7689 8.92 55.9209 9.472 55.9209 10.08V14.736C55.9209 15.344 55.7689 15.904 55.4649 16.416C55.1609 16.928 54.7529 17.336 54.2409 17.64C53.7289 17.928 53.1689 18.072 52.5609 18.072L41.8089 18.096V24H38.6409ZM42.0969 14.88H52.4169C52.4969 14.88 52.5689 14.856 52.6329 14.808C52.6969 14.76 52.7289 14.696 52.7289 14.616V10.2C52.7289 10.12 52.6969 10.056 52.6329 10.008C52.5689 9.944 52.4969 9.912 52.4169 9.912H42.0969C42.0169 9.912 41.9449 9.944 41.8809 10.008C41.8329 10.056 41.8089 10.12 41.8089 10.2V14.616C41.8089 14.696 41.8329 14.76 41.8809 14.808C41.9449 14.856 42.0169 14.88 42.0969 14.88ZM58.4936 24V10.056C58.4936 9.448 58.6456 8.896 58.9496 8.4C59.2536 7.888 59.6536 7.48 60.1496 7.176C60.6616 6.872 61.2216 6.72 61.8296 6.72H72.4136C73.0216 6.72 73.5816 6.872 74.0936 7.176C74.6056 7.48 75.0136 7.888 75.3176 8.4C75.6216 8.896 75.7736 9.448 75.7736 10.056V24H72.5816V18.192H61.6616V24H58.4936ZM61.6616 15.024H72.5816V10.2C72.5816 10.12 72.5496 10.056 72.4856 10.008C72.4216 9.944 72.3496 9.912 72.2696 9.912H61.9496C61.8696 9.912 61.7976 9.944 61.7336 10.008C61.6856 10.056 61.6616 10.12 61.6616 10.2V15.024ZM81.8441 24C81.2361 24 80.6761 23.848 80.1641 23.544C79.6681 23.24 79.2681 22.84 78.9641 22.344C78.6601 21.832 78.5081 21.272 78.5081 20.664V10.056C78.5081 9.448 78.6601 8.896 78.9641 8.4C79.2681 7.888 79.6681 7.48 80.1641 7.176C80.6761 6.872 81.2361 6.72 81.8441 6.72H95.7401V9.912H82.5161C82.2601 9.912 82.0521 9.984 81.8921 10.128C81.7481 10.272 81.6761 10.48 81.6761 10.752V19.968C81.6761 20.224 81.7481 20.432 81.8921 20.592C82.0521 20.736 82.2601 20.808 82.5161 20.808H95.7401V24H81.8441ZM85.3001 27.624L86.4521 23.64H89.6441L88.5161 27.624H85.3001ZM98.2904 24V10.056C98.2904 9.448 98.4424 8.896 98.7464 8.4C99.0504 7.888 99.4504 7.48 99.9464 7.176C100.458 6.872 101.018 6.72 101.626 6.72H112.21C112.818 6.72 113.378 6.872 113.89 7.176C114.402 7.48 114.81 7.888 115.114 8.4C115.418 8.896 115.57 9.448 115.57 10.056V24H112.378V18.192H101.458V24H98.2904ZM101.458 15.024H112.378V10.2C112.378 10.12 112.346 10.056 112.282 10.008C112.218 9.944 112.146 9.912 112.066 9.912H101.746C101.666 9.912 101.594 9.944 101.53 10.008C101.482 10.056 101.458 10.12 101.458 10.2V15.024ZM109.162 4.848C108.282 4.848 107.37 4.504 106.426 3.816C105.514 3.144 104.738 2.808 104.098 2.808H102.562V0.383999H104.458C105.274 0.383999 106.114 0.735999 106.978 1.44C107.842 2.144 108.642 2.496 109.378 2.496H111.298V4.848H109.162ZM121.593 24C120.985 24 120.425 23.848 119.913 23.544C119.417 23.24 119.017 22.84 118.713 22.344C118.409 21.832 118.257 21.272 118.257 20.664V10.056C118.257 9.448 118.409 8.896 118.713 8.4C119.017 7.888 119.417 7.48 119.913 7.176C120.425 6.872 120.985 6.72 121.593 6.72H132.201C132.809 6.72 133.361 6.872 133.857 7.176C134.369 7.48 134.777 7.888 135.081 8.4C135.385 8.896 135.537 9.448 135.537 10.056V20.664C135.537 21.272 135.385 21.832 135.081 22.344C134.777 22.84 134.369 23.24 133.857 23.544C133.361 23.848 132.809 24 132.201 24H121.593ZM121.713 20.808H132.033C132.113 20.808 132.185 20.784 132.249 20.736C132.313 20.672 132.345 20.6 132.345 20.52V10.2C132.345 10.12 132.313 10.056 132.249 10.008C132.185 9.944 132.113 9.912 132.033 9.912H121.713C121.633 9.912 121.561 9.944 121.497 10.008C121.449 10.056 121.425 10.12 121.425 10.2V20.52C121.425 20.6 121.449 20.672 121.497 20.736C121.561 20.784 121.633 20.808 121.713 20.808ZM0.392 54V36.72H14.312C14.92 36.72 15.48 36.872 15.992 37.176C16.504 37.48 16.912 37.888 17.216 38.4C17.52 38.896 17.672 39.448 17.672 40.056V50.664C17.672 51.272 17.52 51.832 17.216 52.344C16.912 52.84 16.504 53.24 15.992 53.544C15.48 53.848 14.92 54 14.312 54H0.392ZM3.824 50.808H14.168C14.248 50.808 14.32 50.784 14.384 50.736C14.448 50.672 14.48 50.6 14.48 50.52V40.2C14.48 40.12 14.448 40.056 14.384 40.008C14.32 39.944 14.248 39.912 14.168 39.912H3.824C3.744 39.912 3.672 39.944 3.608 40.008C3.56 40.056 3.536 40.12 3.536 40.2V50.52C3.536 50.6 3.56 50.672 3.608 50.736C3.672 50.784 3.744 50.808 3.824 50.808ZM20.4076 54V36.72H36.3196V39.912H23.5996V43.752H33.8236V46.968H23.5996V50.808H36.3196V54H20.4076ZM46.0946 54V36.696H49.2626V50.808H63.3746V54H46.0946ZM64.8217 54V36.72H80.7337V39.912H68.0137V43.752H78.2377V46.968H68.0137V50.808H80.7337V54H64.8217ZM83.1967 54V40.056C83.1967 39.448 83.3487 38.896 83.6527 38.4C83.9567 37.888 84.3567 37.48 84.8527 37.176C85.3647 36.872 85.9247 36.72 86.5327 36.72H97.1167C97.7247 36.72 98.2847 36.872 98.7967 37.176C99.3087 37.48 99.7167 37.888 100.021 38.4C100.325 38.896 100.477 39.448 100.477 40.056V54H97.2847V48.192H86.3647V54H83.1967ZM86.3647 45.024H97.2847V40.2C97.2847 40.12 97.2527 40.056 97.1887 40.008C97.1247 39.944 97.0527 39.912 96.9727 39.912H86.6527C86.5727 39.912 86.5007 39.944 86.4367 40.008C86.3887 40.056 86.3647 40.12 86.3647 40.2V45.024ZM103.259 54V36.72H117.179C117.787 36.72 118.347 36.872 118.859 37.176C119.371 37.48 119.779 37.888 120.083 38.4C120.387 38.896 120.539 39.448 120.539 40.056V50.664C120.539 51.272 120.387 51.832 120.083 52.344C119.779 52.84 119.371 53.24 118.859 53.544C118.347 53.848 117.787 54 117.179 54H103.259ZM106.691 50.808H117.035C117.115 50.808 117.187 50.784 117.251 50.736C117.315 50.672 117.347 50.6 117.347 50.52V40.2C117.347 40.12 117.315 40.056 117.251 40.008C117.187 39.944 117.115 39.912 117.035 39.912H106.691C106.611 39.912 106.539 39.944 106.475 40.008C106.427 40.056 106.403 40.12 106.403 40.2V50.52C106.403 50.6 106.427 50.672 106.475 50.736C106.539 50.784 106.611 50.808 106.691 50.808ZM126.491 54C125.883 54 125.323 53.848 124.811 53.544C124.315 53.24 123.915 52.84 123.611 52.344C123.307 51.832 123.155 51.272 123.155 50.664V49.344H126.323V50.52C126.323 50.6 126.347 50.672 126.395 50.736C126.459 50.784 126.531 50.808 126.611 50.808H136.955C137.035 50.808 137.099 50.784 137.147 50.736C137.211 50.672 137.243 50.6 137.243 50.52V47.232C137.243 47.152 137.211 47.088 137.147 47.04C137.099 46.992 137.035 46.968 136.955 46.968H126.491C125.883 46.968 125.323 46.816 124.811 46.512C124.315 46.208 123.915 45.808 123.611 45.312C123.307 44.8 123.155 44.232 123.155 43.608V40.056C123.155 39.448 123.307 38.896 123.611 38.4C123.915 37.888 124.315 37.48 124.811 37.176C125.323 36.872 125.883 36.72 126.491 36.72H137.099C137.707 36.72 138.259 36.872 138.755 37.176C139.267 37.48 139.675 37.888 139.979 38.4C140.283 38.896 140.435 39.448 140.435 40.056V41.376H137.243V40.2C137.243 40.12 137.211 40.056 137.147 40.008C137.099 39.944 137.035 39.912 136.955 39.912H126.611C126.531 39.912 126.459 39.944 126.395 40.008C126.347 40.056 126.323 40.12 126.323 40.2V43.488C126.323 43.568 126.347 43.632 126.395 43.68C126.459 43.728 126.531 43.752 126.611 43.752H137.099C137.707 43.752 138.259 43.904 138.755 44.208C139.267 44.512 139.675 44.92 139.979 45.432C140.283 45.928 140.435 46.488 140.435 47.112V50.664C140.435 51.272 140.283 51.832 139.979 52.344C139.675 52.84 139.267 53.24 138.755 53.544C138.259 53.848 137.707 54 137.099 54H126.491Z" fill="#0090A5"/>
</svg>
