<svg width="56" height="18" viewBox="0 0 56 18" fill="none" xmlns="http://www.w3.org/2000/svg">
<path d="M3.608 18C3 18 2.44 17.848 1.928 17.544C1.432 17.24 1.032 16.84 0.728 16.344C0.424 15.832 0.272 15.272 0.272 14.664V13.344H3.44V14.52C3.44 14.6 3.464 14.672 3.512 14.736C3.576 14.784 3.648 14.808 3.728 14.808H14.072C14.152 14.808 14.216 14.784 14.264 14.736C14.328 14.672 14.36 14.6 14.36 14.52V11.232C14.36 11.152 14.328 11.088 14.264 11.04C14.216 10.992 14.152 10.968 14.072 10.968H3.608C3 10.968 2.44 10.816 1.928 10.512C1.432 10.208 1.032 9.808 0.728 9.312C0.424 8.8 0.272 8.232 0.272 7.608V4.056C0.272 3.448 0.424 2.896 0.728 2.4C1.032 1.888 1.432 1.48 1.928 1.176C2.44 0.871999 3 0.719999 3.608 0.719999H14.216C14.824 0.719999 15.376 0.871999 15.872 1.176C16.384 1.48 16.792 1.888 17.096 2.4C17.4 2.896 17.552 3.448 17.552 4.056V5.376H14.36V4.2C14.36 4.12 14.328 4.056 14.264 4.008C14.216 3.944 14.152 3.912 14.072 3.912H3.728C3.648 3.912 3.576 3.944 3.512 4.008C3.464 4.056 3.44 4.12 3.44 4.2V7.488C3.44 7.568 3.464 7.632 3.512 7.68C3.576 7.728 3.648 7.752 3.728 7.752H14.216C14.824 7.752 15.376 7.904 15.872 8.208C16.384 8.512 16.792 8.92 17.096 9.432C17.4 9.928 17.552 10.488 17.552 11.112V14.664C17.552 15.272 17.4 15.832 17.096 16.344C16.792 16.84 16.384 17.24 15.872 17.544C15.376 17.848 14.824 18 14.216 18H3.608ZM20.2201 18V0.719999H36.1321V3.912H23.4121V7.752H33.6361V10.968H23.4121V14.808H36.1321V18H20.2201ZM41.3195 18C40.7115 18 40.1515 17.848 39.6395 17.544C39.1435 17.24 38.7435 16.84 38.4395 16.344C38.1355 15.832 37.9835 15.272 37.9835 14.664V4.056C37.9835 3.448 38.1355 2.896 38.4395 2.4C38.7435 1.888 39.1435 1.48 39.6395 1.176C40.1515 0.871999 40.7115 0.719999 41.3195 0.719999H51.9275C52.5355 0.719999 53.0875 0.871999 53.5835 1.176C54.0955 1.48 54.5035 1.888 54.8075 2.4C55.1115 2.896 55.2635 3.448 55.2635 4.056V14.664C55.2635 15.272 55.1115 15.832 54.8075 16.344C54.5035 16.84 54.0955 17.24 53.5835 17.544C53.0875 17.848 52.5355 18 51.9275 18H41.3195ZM41.4395 14.808H51.7595C51.8395 14.808 51.9115 14.784 51.9755 14.736C52.0395 14.672 52.0715 14.6 52.0715 14.52V4.2C52.0715 4.12 52.0395 4.056 51.9755 4.008C51.9115 3.944 51.8395 3.912 51.7595 3.912H41.4395C41.3595 3.912 41.2875 3.944 41.2235 4.008C41.1755 4.056 41.1515 4.12 41.1515 4.2V14.52C41.1515 14.6 41.1755 14.672 41.2235 14.736C41.2875 14.784 41.3595 14.808 41.4395 14.808Z" fill="#0090A5"/>
</svg>
